# xmcd
#
# Track frame offsets:
#	150
#	21752
#	45166
#	63373
#	79825
#	94428
#	110908
#	129100
#	147743
#	167032
#	186160
#
# Disc length: 2763 seconds
#
# Revision: 0
# Processed by: cddbd v1.5.2PL0 Copyright (c) Steve Scherf et al.
# Submitted via: dBpowerAMP V4.0
#
DISCID=960ac90b
DTITLE=One eskimO - One eskimO
DYEAR=2009
DGENRE=Alt. Country
TTITLE0=Hometime
TTITLE1=Astronauts
TTITLE2=Kandi
TTITLE3=Slip
TTITLE4=Simple Day
TTITLE5=Givin Up
TTITLE6=Chocolate
TTITLE7=All Ballons
TTITLE8=Chosen One
TTITLE9=UFO
TTITLE10=Amazing
EXTD=
EXTT0=
EXTT1=
EXTT2=
EXTT3=
EXTT4=
EXTT5=
EXTT6=
EXTT7=
EXTT8=
EXTT9=
EXTT10=
PLAYORDER=
